<svg xmlns="http://www.w3.org/2000/svg" xmlns:xlink="http://www.w3.org/1999/xlink" width="500" zoomAndPan="magnify" viewBox="0 0 375 374.999991" height="500" preserveAspectRatio="xMidYMid meet" version="1.0"><defs><filter x="0%" y="0%" width="100%" height="100%" id="d80a83be29"><feColorMatrix values="0 0 0 0 1 0 0 0 0 1 0 0 0 0 1 0 0 0 1 0" color-interpolation-filters="sRGB"/></filter><g/><mask id="8ea0cda6f6"><g filter="url(#d80a83be29)"><rect x="-37.5" width="450" fill="#000000" y="-37.499999" height="449.999989" fill-opacity="0.4784"/></g></mask><clipPath id="9253a2f539"><rect x="0" width="161" y="0" height="207"/></clipPath><mask id="14e4b3725e"><g filter="url(#d80a83be29)"><rect x="-37.5" width="450" fill="#000000" y="-37.499999" height="449.999989" fill-opacity="0.4784"/></g></mask><clipPath id="80a46fa947"><path d="M 0.160156 0.0390625 L 13 0.0390625 L 13 12 L 0.160156 12 Z M 0.160156 0.0390625 " clip-rule="nonzero"/></clipPath><clipPath id="2ccd98503e"><path d="M 16 0.0390625 L 28 0.0390625 L 28 12 L 16 12 Z M 16 0.0390625 " clip-rule="nonzero"/></clipPath><clipPath id="86afcad31f"><path d="M 31 0.0390625 L 43 0.0390625 L 43 12 L 31 12 Z M 31 0.0390625 " clip-rule="nonzero"/></clipPath><clipPath id="84378c5fcc"><path d="M 46 0.0390625 L 59 0.0390625 L 59 12 L 46 12 Z M 46 0.0390625 " clip-rule="nonzero"/></clipPath><clipPath id="2ac6527a78"><path d="M 62 0.0390625 L 75 0.0390625 L 75 12 L 62 12 Z M 62 0.0390625 " clip-rule="nonzero"/></clipPath><clipPath id="3c1062e3b0"><path d="M 78 0.0390625 L 89 0.0390625 L 89 12 L 78 12 Z M 78 0.0390625 " clip-rule="nonzero"/></clipPath><clipPath id="a286a67c18"><path d="M 93 0.0390625 L 108 0.0390625 L 108 12 L 93 12 Z M 93 0.0390625 " clip-rule="nonzero"/></clipPath><clipPath id="9416ba9c5b"><path d="M 112 0.0390625 L 121 0.0390625 L 121 12 L 112 12 Z M 112 0.0390625 " clip-rule="nonzero"/></clipPath><clipPath id="5e89cb5fdb"><path d="M 124 0.0390625 L 136 0.0390625 L 136 12 L 124 12 Z M 124 0.0390625 " clip-rule="nonzero"/></clipPath><clipPath id="b41cb971e5"><path d="M 139 0.0390625 L 152 0.0390625 L 152 12 L 139 12 Z M 139 0.0390625 " clip-rule="nonzero"/></clipPath><clipPath id="40549b829d"><path d="M 161 0.0390625 L 176 0.0390625 L 176 12 L 161 12 Z M 161 0.0390625 " clip-rule="nonzero"/></clipPath><clipPath id="4046f027e8"><path d="M 179 0.0390625 L 195 0.0390625 L 195 12 L 179 12 Z M 179 0.0390625 " clip-rule="nonzero"/></clipPath><clipPath id="798563f4f7"><path d="M 198 0.0390625 L 214 0.0390625 L 214 12 L 198 12 Z M 198 0.0390625 " clip-rule="nonzero"/></clipPath><clipPath id="77ab36bfb5"><rect x="0" width="219" y="0" height="16"/></clipPath></defs><rect x="-37.5" width="450" fill="#ffffff" y="-37.499999" height="449.999989" fill-opacity="1"/><rect x="-37.5" width="450" fill="#ffffff" y="-37.499999" height="449.999989" fill-opacity="1"/><rect x="-37.5" width="450" fill="#e4dcd1" y="-37.499999" height="449.999989" fill-opacity="1"/><g mask="url(#8ea0cda6f6)"><g transform="matrix(1, 0, 0, 1, 107, 84)"><g clip-path="url(#9253a2f539)"><g fill="#ffffff" fill-opacity="1"><g transform="translate(0.98403, 155.249984)"><g><path d="M 35.59375 2.703125 C 30.082031 2.703125 24.472656 2.023438 18.765625 0.671875 C 13.066406 -0.671875 8.3125 -2.445312 4.5 -4.65625 L 5.25 -25.078125 L 6.75 -25.078125 L 11.40625 -15.3125 C 12.8125 -12.507812 14.316406 -10.03125 15.921875 -7.875 C 17.523438 -5.726562 19.726562 -4.054688 22.53125 -2.859375 C 24.53125 -1.847656 26.453125 -1.164062 28.296875 -0.8125 C 30.148438 -0.46875 32.234375 -0.296875 34.546875 -0.296875 C 40.648438 -0.296875 45.476562 -1.945312 49.03125 -5.25 C 52.582031 -8.5625 54.359375 -12.816406 54.359375 -18.015625 C 54.359375 -22.921875 53.15625 -26.75 50.75 -29.5 C 48.351562 -32.257812 44.5 -34.941406 39.1875 -37.546875 L 33.03125 -40.25 C 24.425781 -44.050781 17.695312 -48.425781 12.84375 -53.375 C 7.988281 -58.332031 5.5625 -64.921875 5.5625 -73.140625 C 5.5625 -79.046875 7.085938 -84.148438 10.140625 -88.453125 C 13.191406 -92.753906 17.441406 -96.054688 22.890625 -98.359375 C 28.347656 -100.660156 34.734375 -101.8125 42.046875 -101.8125 C 47.347656 -101.8125 52.378906 -101.109375 57.140625 -99.703125 C 61.898438 -98.304688 66.03125 -96.40625 69.53125 -94 L 68.625 -75.984375 L 67.125 -75.984375 L 60.96875 -87.25 C 59.269531 -90.75 57.566406 -93.222656 55.859375 -94.671875 C 54.160156 -96.128906 52.207031 -97.160156 50 -97.765625 C 48.707031 -98.160156 47.507812 -98.429688 46.40625 -98.578125 C 45.300781 -98.734375 43.898438 -98.8125 42.203125 -98.8125 C 37.097656 -98.8125 32.789062 -97.332031 29.28125 -94.375 C 25.78125 -91.425781 24.03125 -87.445312 24.03125 -82.4375 C 24.03125 -77.332031 25.378906 -73.253906 28.078125 -70.203125 C 30.785156 -67.148438 34.742188 -64.421875 39.953125 -62.015625 L 46.859375 -59.015625 C 56.460938 -54.804688 63.367188 -50.320312 67.578125 -45.5625 C 71.785156 -40.8125 73.890625 -34.6875 73.890625 -27.1875 C 73.890625 -18.375 70.554688 -11.1875 63.890625 -5.625 C 57.234375 -0.0703125 47.800781 2.703125 35.59375 2.703125 Z M 35.59375 2.703125 "/></g></g></g><g fill="#ffffff" fill-opacity="1"><g transform="translate(79.219475, 155.249984)"><g><path d="M 3.296875 0 L 3.296875 -1.5 L 6 -2.40625 C 8.007812 -3.101562 9.363281 -4.050781 10.0625 -5.25 C 10.757812 -6.457031 11.109375 -8.0625 11.109375 -10.0625 C 11.210938 -16.070312 11.265625 -22.128906 11.265625 -28.234375 C 11.265625 -34.335938 11.265625 -40.441406 11.265625 -46.546875 L 11.265625 -52.5625 C 11.265625 -58.570312 11.265625 -64.601562 11.265625 -70.65625 C 11.265625 -76.707031 11.210938 -82.738281 11.109375 -88.75 C 11.109375 -90.75 10.832031 -92.347656 10.28125 -93.546875 C 9.726562 -94.753906 8.503906 -95.707031 6.609375 -96.40625 L 3.296875 -97.609375 L 3.296875 -99.109375 L 75.984375 -99.109375 L 77.03125 -74.1875 L 75.53125 -74.1875 L 66.984375 -89.953125 C 65.972656 -91.859375 64.816406 -93.359375 63.515625 -94.453125 C 62.222656 -95.554688 60.421875 -96.109375 58.109375 -96.109375 L 33.9375 -96.109375 C 33.832031 -89.003906 33.78125 -81.742188 33.78125 -74.328125 C 33.78125 -66.921875 33.78125 -59.566406 33.78125 -52.265625 L 49.40625 -52.265625 C 51.707031 -52.265625 53.410156 -52.765625 54.515625 -53.765625 C 55.617188 -54.765625 56.671875 -56.210938 57.671875 -58.109375 L 60.8125 -63.828125 L 62.328125 -63.828125 L 62.328125 -37.546875 L 60.8125 -37.546875 L 57.515625 -43.25 C 56.515625 -45.050781 55.488281 -46.5 54.4375 -47.59375 C 53.382812 -48.695312 51.707031 -49.25 49.40625 -49.25 L 33.78125 -49.25 C 33.78125 -42.25 33.78125 -35.566406 33.78125 -29.203125 C 33.78125 -22.847656 33.832031 -16.617188 33.9375 -10.515625 C 33.9375 -6.609375 35.835938 -4.054688 39.640625 -2.859375 L 44.15625 -1.5 L 44.15625 0 Z M 3.296875 0 "/></g></g></g></g></g></g><g fill="#000000" fill-opacity="1"><g transform="translate(86.780022, 210.485187)"><g/></g></g><g fill="#000000" fill-opacity="1"><g transform="translate(101.018303, 210.485187)"><g><path d="M 69.203125 -38.671875 C 69.441406 -38.472656 69.65625 -38.25 69.84375 -38 C 70.03125 -37.75 70.148438 -37.457031 70.203125 -37.125 C 70.265625 -36.75 70.128906 -36.460938 69.796875 -36.265625 C 69.597656 -36.171875 69.40625 -36.15625 69.21875 -36.21875 C 69.03125 -36.289062 68.898438 -36.4375 68.828125 -36.65625 C 68.609375 -37.238281 68.28125 -37.703125 67.84375 -38.046875 C 67.414062 -38.398438 66.945312 -38.703125 66.4375 -38.953125 C 65.3125 -39.546875 64.148438 -40.023438 62.953125 -40.390625 C 61.753906 -40.765625 60.550781 -41.09375 59.34375 -41.375 C 57.3125 -41.800781 54.609375 -42.078125 51.234375 -42.203125 C 47.867188 -42.335938 44.117188 -42.289062 39.984375 -42.0625 C 35.847656 -41.832031 31.613281 -41.390625 27.28125 -40.734375 C 22.945312 -40.078125 18.796875 -39.175781 14.828125 -38.03125 C 10.867188 -36.882812 7.390625 -35.453125 4.390625 -33.734375 C 1.398438 -32.023438 -0.828125 -30.007812 -2.296875 -27.6875 C -3.535156 -25.675781 -3.785156 -23.546875 -3.046875 -21.296875 C -2.503906 -19.765625 -1.734375 -18.367188 -0.734375 -17.109375 C 0.753906 -15.222656 2.40625 -13.492188 4.21875 -11.921875 C 5.75 -10.523438 7.289062 -9.132812 8.84375 -7.75 C 10.351562 -6.40625 11.867188 -5.046875 13.390625 -3.671875 C 15.078125 -2.117188 16.738281 -0.546875 18.375 1.046875 C 18.519531 1.191406 18.675781 1.335938 18.84375 1.484375 C 19.71875 2.304688 20.492188 3.21875 21.171875 4.21875 C 21.859375 5.363281 21.988281 6.25 21.5625 6.875 C 21.132812 7.507812 20.328125 7.9375 19.140625 8.15625 C 17.953125 8.382812 16.570312 8.453125 15 8.359375 C 13.425781 8.273438 11.84375 8.078125 10.25 7.765625 C 8.65625 7.460938 7.238281 7.097656 6 6.671875 C 4.769531 6.242188 3.898438 5.800781 3.390625 5.34375 C 2.367188 4.394531 2.300781 3.394531 3.1875 2.34375 C 4.144531 1.257812 5.3125 0.472656 6.6875 -0.015625 C 8.675781 -0.785156 10.691406 -0.847656 12.734375 -0.203125 C 13.117188 -0.0546875 13.492188 0.128906 13.859375 0.359375 C 13.890625 0.378906 13.921875 0.398438 13.953125 0.421875 C 14.046875 0.484375 14.109375 0.566406 14.140625 0.671875 C 14.179688 0.773438 14.164062 0.890625 14.09375 1.015625 C 13.9375 1.210938 13.738281 1.269531 13.5 1.1875 C 13.28125 1.113281 13.070312 1.015625 12.875 0.890625 C 11.46875 0.191406 10.015625 0.046875 8.515625 0.453125 C 7.023438 0.867188 5.769531 1.679688 4.75 2.890625 C 4.300781 3.484375 4.273438 4 4.671875 4.4375 C 5.078125 4.882812 5.691406 5.257812 6.515625 5.5625 C 7.335938 5.875 8.164062 6.113281 9 6.28125 C 9.84375 6.457031 10.46875 6.578125 10.875 6.640625 C 10.957031 6.640625 11.015625 6.648438 11.046875 6.671875 C 11.128906 6.671875 11.226562 6.679688 11.34375 6.703125 C 11.875 6.816406 12.597656 6.9375 13.515625 7.0625 C 14.429688 7.195312 15.375 7.285156 16.34375 7.328125 C 17.320312 7.378906 18.15625 7.316406 18.84375 7.140625 C 19.539062 6.960938 19.929688 6.617188 20.015625 6.109375 C 20.109375 5.597656 19.722656 4.84375 18.859375 3.84375 C 17.941406 2.78125 16.96875 1.75 15.9375 0.75 C 13.382812 -1.71875 10.765625 -4.113281 8.078125 -6.4375 C 7.109375 -7.3125 6.144531 -8.179688 5.1875 -9.046875 C 3.570312 -10.492188 1.988281 -11.972656 0.4375 -13.484375 C -1 -14.878906 -2.265625 -16.414062 -3.359375 -18.09375 C -4.148438 -19.300781 -4.703125 -20.609375 -5.015625 -22.015625 C -5.484375 -24.304688 -5.054688 -26.425781 -3.734375 -28.375 C -2.285156 -30.550781 -0.1875 -32.476562 2.5625 -34.15625 C 5.3125 -35.84375 8.5 -37.28125 12.125 -38.46875 C 15.75 -39.65625 19.609375 -40.613281 23.703125 -41.34375 C 27.804688 -42.082031 31.953125 -42.601562 36.140625 -42.90625 C 40.328125 -43.21875 44.335938 -43.320312 48.171875 -43.21875 C 52.015625 -43.125 55.492188 -42.835938 58.609375 -42.359375 C 61.722656 -41.878906 64.273438 -41.210938 66.265625 -40.359375 C 67.316406 -39.953125 68.296875 -39.390625 69.203125 -38.671875 Z M 69.203125 -38.671875 "/></g></g></g><g fill="#000000" fill-opacity="1"><g transform="translate(124.878404, 210.485187)"><g><path d="M 8.375 -6.46875 C 7.175781 -5.0625 6.003906 -4.019531 4.859375 -3.34375 C 3.710938 -2.675781 2.484375 -2.457031 1.171875 -2.6875 C -0.140625 -2.914062 -0.675781 -3.789062 -0.4375 -5.3125 C -0.28125 -6.082031 -0.0625 -6.832031 0.21875 -7.5625 C 0.90625 -9.269531 1.597656 -10.96875 2.296875 -12.65625 C 2.535156 -13.269531 2.785156 -13.882812 3.046875 -14.5 C 3.109375 -14.632812 3.164062 -14.765625 3.21875 -14.890625 C 3.3125 -15.117188 3.410156 -15.347656 3.515625 -15.578125 C 3.648438 -15.972656 3.492188 -16.179688 3.046875 -16.203125 C 2.785156 -16.203125 2.53125 -16.203125 2.28125 -16.203125 C 2.164062 -16.203125 2.035156 -16.203125 1.890625 -16.203125 C 1.753906 -16.179688 1.613281 -16.160156 1.46875 -16.140625 C 1.238281 -16.117188 1.007812 -16.109375 0.78125 -16.109375 C 0.550781 -16.109375 0.335938 -16.171875 0.140625 -16.296875 C 0.0859375 -16.304688 0.046875 -16.335938 0.015625 -16.390625 C -0.015625 -16.441406 -0.03125 -16.5 -0.03125 -16.5625 C -0.0078125 -16.59375 0.0195312 -16.632812 0.0625 -16.6875 C 0.101562 -16.738281 0.15625 -16.769531 0.21875 -16.78125 C 0.414062 -16.863281 0.617188 -16.921875 0.828125 -16.953125 C 1.378906 -16.984375 1.929688 -17.007812 2.484375 -17.03125 C 2.691406 -17.03125 2.878906 -17.03125 3.046875 -17.03125 C 3.398438 -17.03125 3.660156 -17.039062 3.828125 -17.0625 C 4.003906 -17.09375 4.144531 -17.1875 4.25 -17.34375 C 4.363281 -17.507812 4.492188 -17.757812 4.640625 -18.09375 C 4.710938 -18.269531 4.8125 -18.460938 4.9375 -18.671875 C 5.226562 -19.296875 5.519531 -19.9375 5.8125 -20.59375 C 5.945312 -20.882812 6.085938 -21.171875 6.234375 -21.453125 C 6.347656 -21.722656 6.53125 -21.9375 6.78125 -22.09375 C 7.019531 -22.207031 7.226562 -22.195312 7.40625 -22.0625 C 7.457031 -22.03125 7.5 -21.972656 7.53125 -21.890625 C 7.5625 -21.804688 7.578125 -21.734375 7.578125 -21.671875 C 7.578125 -21.328125 7.488281 -20.984375 7.3125 -20.640625 C 7.28125 -20.566406 7.238281 -20.484375 7.1875 -20.390625 C 7.070312 -20.066406 6.945312 -19.738281 6.8125 -19.40625 C 6.5625 -18.800781 6.316406 -18.179688 6.078125 -17.546875 C 6.015625 -17.429688 6.007812 -17.328125 6.0625 -17.234375 C 6.125 -17.148438 6.21875 -17.109375 6.34375 -17.109375 C 6.96875 -17.085938 7.585938 -17.078125 8.203125 -17.078125 C 8.515625 -17.078125 8.828125 -17.078125 9.140625 -17.078125 C 10.117188 -17.054688 10.507812 -16.921875 10.3125 -16.671875 C 10.175781 -16.515625 10.03125 -16.425781 9.875 -16.40625 C 9.71875 -16.382812 9.5625 -16.382812 9.40625 -16.40625 C 9.300781 -16.40625 9.203125 -16.40625 9.109375 -16.40625 C 8.109375 -16.34375 7.117188 -16.304688 6.140625 -16.296875 C 5.679688 -16.296875 5.375 -16.085938 5.21875 -15.671875 C 5.0625 -15.273438 4.90625 -14.882812 4.75 -14.5 C 4.53125 -13.976562 4.320312 -13.472656 4.125 -12.984375 C 3.925781 -12.515625 3.726562 -12.046875 3.53125 -11.578125 C 3.019531 -10.378906 2.53125 -9.175781 2.0625 -7.96875 C 1.769531 -7.1875 1.535156 -6.382812 1.359375 -5.5625 C 0.984375 -4.070312 1.5625 -3.5 3.09375 -3.84375 C 4.59375 -4.195312 6.164062 -5.28125 7.8125 -7.09375 C 8.519531 -7.539062 8.707031 -7.332031 8.375 -6.46875 Z M 8.375 -6.46875 "/></g></g></g><g fill="#000000" fill-opacity="1"><g transform="translate(136.602356, 210.485187)"><g><path d="M 7.625 -5.140625 C 7.113281 -4.628906 6.515625 -4.191406 5.828125 -3.828125 C 5.140625 -3.472656 4.5625 -3.238281 4.09375 -3.125 C 3.632812 -3.007812 3.160156 -2.945312 2.671875 -2.9375 C 1.878906 -2.894531 1.15625 -3 0.5 -3.25 C -0.582031 -3.6875 -0.957031 -4.523438 -0.625 -5.765625 C -0.3125 -6.828125 0.316406 -7.65625 1.265625 -8.25 C 2.222656 -8.851562 3.210938 -9.144531 4.234375 -9.125 C 4.234375 -9.125 4.242188 -9.125 4.265625 -9.125 C 4.523438 -9.144531 4.769531 -9.125 5 -9.0625 C 5.394531 -8.925781 5.644531 -8.695312 5.75 -8.375 C 5.851562 -8.050781 5.78125 -7.691406 5.53125 -7.296875 C 4.957031 -6.429688 4.179688 -5.953125 3.203125 -5.859375 C 2.546875 -5.796875 1.914062 -5.828125 1.3125 -5.953125 C 1.195312 -5.960938 1.09375 -5.925781 1 -5.84375 C 0.914062 -5.769531 0.863281 -5.675781 0.84375 -5.5625 C 0.664062 -4.789062 0.898438 -4.300781 1.546875 -4.09375 C 2.359375 -3.8125 3.195312 -3.8125 4.0625 -4.09375 C 5.0625 -4.40625 6.007812 -4.992188 6.90625 -5.859375 C 7.8125 -6.722656 8.332031 -7.125 8.46875 -7.0625 C 8.613281 -7.007812 8.65625 -6.84375 8.59375 -6.5625 C 8.46875 -6.125 8.144531 -5.648438 7.625 -5.140625 Z M 1.921875 -7.296875 C 1.867188 -7.234375 1.832031 -7.164062 1.8125 -7.09375 C 1.789062 -7.019531 1.820312 -6.953125 1.90625 -6.890625 C 2.21875 -6.710938 2.554688 -6.644531 2.921875 -6.6875 C 3.285156 -6.738281 3.59375 -6.878906 3.84375 -7.109375 C 4.101562 -7.335938 4.21875 -7.613281 4.1875 -7.9375 C 4.15625 -8.0625 4.085938 -8.140625 3.984375 -8.171875 C 3.890625 -8.203125 3.796875 -8.207031 3.703125 -8.1875 C 3.035156 -8.070312 2.441406 -7.773438 1.921875 -7.296875 Z M 1.921875 -7.296875 "/></g></g></g><g fill="#000000" fill-opacity="1"><g transform="translate(148.513844, 210.485187)"><g><path d="M 10.671875 -7.03125 C 10.472656 -6.945312 10.265625 -6.878906 10.046875 -6.828125 C 9.992188 -6.804688 9.945312 -6.785156 9.90625 -6.765625 C 9.6875 -6.679688 9.46875 -6.601562 9.25 -6.53125 C 8.644531 -6.34375 8.023438 -6.132812 7.390625 -5.90625 C 6.921875 -5.769531 6.550781 -5.476562 6.28125 -5.03125 C 5.84375 -4.320312 5.296875 -3.769531 4.640625 -3.375 C 3.984375 -2.976562 3.316406 -2.695312 2.640625 -2.53125 C 1.960938 -2.375 1.359375 -2.273438 0.828125 -2.234375 C 0.304688 -2.191406 -0.0234375 -2.179688 -0.171875 -2.203125 C -0.191406 -2.203125 -0.210938 -2.203125 -0.234375 -2.203125 C -0.453125 -2.066406 -0.664062 -1.800781 -0.875 -1.40625 C -1.09375 -1.007812 -1.285156 -0.65625 -1.453125 -0.34375 C -1.484375 -0.269531 -1.507812 -0.203125 -1.53125 -0.140625 C -2.414062 1.628906 -3.289062 3.398438 -4.15625 5.171875 C -4.644531 6.148438 -5.132812 7.132812 -5.625 8.125 C -5.789062 8.46875 -5.976562 8.800781 -6.1875 9.125 C -6.382812 9.375 -6.628906 9.421875 -6.921875 9.265625 C -7.117188 9.128906 -7.171875 8.9375 -7.078125 8.6875 C -6.972656 8.425781 -6.863281 8.164062 -6.75 7.90625 C -5.21875 4.269531 -3.585938 0.675781 -1.859375 -2.875 C -1.328125 -3.976562 -0.820312 -5.101562 -0.34375 -6.25 C -0.132812 -6.769531 0.0859375 -7.304688 0.328125 -7.859375 C 0.335938 -7.910156 0.367188 -7.96875 0.421875 -8.03125 C 0.535156 -8.332031 0.671875 -8.617188 0.828125 -8.890625 C 0.898438 -8.992188 1.035156 -9.054688 1.234375 -9.078125 C 1.429688 -9.109375 1.597656 -9.082031 1.734375 -9 C 1.921875 -8.882812 2.015625 -8.710938 2.015625 -8.484375 C 2.015625 -8.367188 1.988281 -8.25 1.9375 -8.125 C 1.90625 -8.019531 1.882812 -7.914062 1.875 -7.8125 C 1.863281 -7.71875 1.894531 -7.625 1.96875 -7.53125 C 2.113281 -7.507812 2.238281 -7.523438 2.34375 -7.578125 C 2.445312 -7.640625 2.550781 -7.710938 2.65625 -7.796875 C 2.75 -7.878906 2.863281 -7.9375 3 -7.96875 C 3.082031 -8.007812 3.160156 -8.050781 3.234375 -8.09375 C 3.671875 -8.289062 4.097656 -8.457031 4.515625 -8.59375 C 5.054688 -8.769531 5.597656 -8.734375 6.140625 -8.484375 C 6.367188 -8.335938 6.539062 -8.160156 6.65625 -7.953125 C 6.769531 -7.753906 6.859375 -7.535156 6.921875 -7.296875 C 6.984375 -7.117188 7.144531 -7.023438 7.40625 -7.015625 C 7.675781 -7.003906 7.972656 -7.035156 8.296875 -7.109375 C 8.617188 -7.191406 8.914062 -7.273438 9.1875 -7.359375 C 9.414062 -7.421875 9.578125 -7.457031 9.671875 -7.46875 C 9.941406 -7.53125 10.210938 -7.550781 10.484375 -7.53125 C 10.566406 -7.53125 10.640625 -7.515625 10.703125 -7.484375 C 10.773438 -7.460938 10.8125 -7.394531 10.8125 -7.28125 C 10.8125 -7.226562 10.796875 -7.175781 10.765625 -7.125 C 10.742188 -7.082031 10.710938 -7.050781 10.671875 -7.03125 Z M 5.03125 -6.15625 C 5.21875 -6.269531 5.328125 -6.457031 5.359375 -6.71875 C 5.398438 -6.988281 5.375 -7.25 5.28125 -7.5 C 5.238281 -7.582031 5.175781 -7.640625 5.09375 -7.671875 C 5.019531 -7.703125 4.941406 -7.71875 4.859375 -7.71875 C 4.703125 -7.6875 4.546875 -7.632812 4.390625 -7.5625 C 2.742188 -6.738281 1.410156 -5.5625 0.390625 -4.03125 C 0.191406 -3.675781 0.210938 -3.519531 0.453125 -3.5625 C 0.703125 -3.601562 1.070312 -3.753906 1.5625 -4.015625 C 2.050781 -4.273438 2.5625 -4.578125 3.09375 -4.921875 C 3.625 -5.265625 4.078125 -5.554688 4.453125 -5.796875 C 4.785156 -6.015625 4.976562 -6.132812 5.03125 -6.15625 Z M 5.03125 -6.15625 "/></g></g></g><g fill="#000000" fill-opacity="1"><g transform="translate(162.501607, 210.485187)"><g><path d="M 10.875 -6.25 C 10.71875 -6.101562 10.550781 -5.972656 10.375 -5.859375 C 9.800781 -5.492188 9.28125 -5.207031 8.8125 -5 C 8.351562 -4.800781 7.8125 -4.59375 7.1875 -4.375 C 6.257812 -4.101562 5.664062 -4.164062 5.40625 -4.5625 C 5.144531 -4.96875 5.101562 -5.53125 5.28125 -6.25 C 5.53125 -7.257812 5.675781 -8 5.71875 -8.46875 C 5.757812 -8.945312 5.601562 -9.113281 5.25 -8.96875 C 4.894531 -8.820312 4.253906 -8.332031 3.328125 -7.5 C 2.023438 -6.382812 0.914062 -5.109375 0 -3.671875 C -0.113281 -3.472656 -0.253906 -3.3125 -0.421875 -3.1875 C -0.597656 -3.0625 -0.8125 -3 -1.0625 -3 C -1.300781 -3 -1.472656 -3.0625 -1.578125 -3.1875 C -1.679688 -3.3125 -1.6875 -3.484375 -1.59375 -3.703125 C -1.0625 -4.859375 -0.519531 -6.007812 0.03125 -7.15625 C 0.976562 -9.132812 1.910156 -11.109375 2.828125 -13.078125 C 3.515625 -14.546875 4.191406 -16.019531 4.859375 -17.5 C 5.273438 -18.363281 5.675781 -19.226562 6.0625 -20.09375 C 6.101562 -20.164062 6.144531 -20.242188 6.1875 -20.328125 C 6.226562 -20.421875 6.269531 -20.515625 6.3125 -20.609375 C 6.363281 -20.710938 6.421875 -20.820312 6.484375 -20.9375 C 6.535156 -21.039062 6.632812 -21.125 6.78125 -21.1875 C 6.925781 -21.25 7.070312 -21.285156 7.21875 -21.296875 C 7.375 -21.316406 7.488281 -21.3125 7.5625 -21.28125 C 7.6875 -21.195312 7.753906 -21.109375 7.765625 -21.015625 C 7.773438 -20.929688 7.757812 -20.835938 7.71875 -20.734375 C 7.695312 -20.722656 7.6875 -20.691406 7.6875 -20.640625 C 7.507812 -20.117188 7.320312 -19.613281 7.125 -19.125 C 5.988281 -16.382812 4.753906 -13.691406 3.421875 -11.046875 C 3.316406 -10.859375 3.195312 -10.640625 3.0625 -10.390625 C 2.863281 -10.035156 2.679688 -9.6875 2.515625 -9.34375 C 2.347656 -9 2.289062 -8.769531 2.34375 -8.65625 C 2.40625 -8.539062 2.671875 -8.628906 3.140625 -8.921875 C 3.285156 -9.015625 3.414062 -9.113281 3.53125 -9.21875 C 3.90625 -9.46875 4.28125 -9.703125 4.65625 -9.921875 C 4.96875 -10.140625 5.320312 -10.257812 5.71875 -10.28125 C 6.65625 -10.34375 7.179688 -9.914062 7.296875 -9 C 7.347656 -8.632812 7.335938 -8.269531 7.265625 -7.90625 C 7.191406 -7.550781 7.101562 -7.203125 7 -6.859375 C 6.988281 -6.765625 6.972656 -6.664062 6.953125 -6.5625 C 6.796875 -5.957031 6.835938 -5.609375 7.078125 -5.515625 C 7.328125 -5.429688 7.671875 -5.484375 8.109375 -5.671875 C 8.554688 -5.859375 9.003906 -6.082031 9.453125 -6.34375 C 9.765625 -6.507812 10.039062 -6.648438 10.28125 -6.765625 C 10.519531 -6.878906 10.695312 -6.925781 10.8125 -6.90625 C 11.03125 -6.875 11.128906 -6.785156 11.109375 -6.640625 C 11.085938 -6.503906 11.007812 -6.375 10.875 -6.25 Z M 10.875 -6.25 "/></g></g></g><g fill="#000000" fill-opacity="1"><g transform="translate(176.837648, 210.485187)"><g/></g></g><g fill="#000000" fill-opacity="1"><g transform="translate(191.079917, 210.485187)"><g><path d="M 68.5 -37.65625 C 68.832031 -37.457031 69.039062 -37.195312 69.125 -36.875 C 69.21875 -36.550781 69.164062 -36.222656 68.96875 -35.890625 C 68.675781 -35.421875 68.316406 -34.988281 67.890625 -34.59375 C 67.015625 -33.789062 66.054688 -33.0625 65.015625 -32.40625 C 59.753906 -28.96875 54.085938 -26.359375 48.015625 -24.578125 C 47.734375 -24.492188 47.457031 -24.398438 47.1875 -24.296875 C 46.769531 -24.171875 46.347656 -24.046875 45.921875 -23.921875 C 45.804688 -23.878906 45.695312 -23.894531 45.59375 -23.96875 C 45.5 -24.039062 45.441406 -24.144531 45.421875 -24.28125 C 45.421875 -24.34375 45.441406 -24.414062 45.484375 -24.5 C 45.535156 -24.582031 45.59375 -24.640625 45.65625 -24.671875 C 46.164062 -24.878906 46.695312 -25.070312 47.25 -25.25 C 53.34375 -27.269531 59.050781 -30.082031 64.375 -33.6875 C 65.03125 -34.15625 65.660156 -34.644531 66.265625 -35.15625 C 66.347656 -35.238281 66.4375 -35.304688 66.53125 -35.359375 C 66.84375 -35.617188 67.066406 -35.941406 67.203125 -36.328125 C 67.285156 -36.566406 67.21875 -36.765625 67 -36.921875 C 66.757812 -37.078125 66.492188 -37.164062 66.203125 -37.1875 C 66.140625 -37.1875 66.078125 -37.195312 66.015625 -37.21875 C 64.859375 -37.414062 63.695312 -37.515625 62.53125 -37.515625 C 61.363281 -37.515625 60.203125 -37.460938 59.046875 -37.359375 C 56.410156 -37.097656 53.785156 -36.742188 51.171875 -36.296875 C 48.554688 -35.847656 45.953125 -35.347656 43.359375 -34.796875 C 35.660156 -33.171875 28.082031 -31.109375 20.625 -28.609375 C 17.976562 -27.722656 15.351562 -26.78125 12.75 -25.78125 C 10.144531 -24.78125 7.570312 -23.679688 5.03125 -22.484375 C 4.34375 -22.140625 3.65625 -21.800781 2.96875 -21.46875 C 2.601562 -21.28125 2.222656 -21.085938 1.828125 -20.890625 C 1.765625 -20.867188 1.71875 -20.835938 1.6875 -20.796875 C 1.425781 -20.660156 1.160156 -20.550781 0.890625 -20.46875 C 0.753906 -20.414062 0.609375 -20.394531 0.453125 -20.40625 C 0.304688 -20.414062 0.195312 -20.476562 0.125 -20.59375 C 0.0390625 -20.75 0.0351562 -20.882812 0.109375 -21 C 0.191406 -21.125 0.300781 -21.222656 0.4375 -21.296875 C 0.457031 -21.316406 0.488281 -21.335938 0.53125 -21.359375 C 1.175781 -21.734375 1.84375 -22.097656 2.53125 -22.453125 C 4.738281 -23.566406 6.984375 -24.59375 9.265625 -25.53125 C 11.554688 -26.476562 13.867188 -27.367188 16.203125 -28.203125 C 25.617188 -31.554688 35.222656 -34.21875 45.015625 -36.1875 C 47.367188 -36.65625 49.722656 -37.085938 52.078125 -37.484375 C 54.441406 -37.878906 56.820312 -38.175781 59.21875 -38.375 C 59.90625 -38.40625 60.601562 -38.441406 61.3125 -38.484375 C 61.625 -38.503906 61.945312 -38.523438 62.28125 -38.546875 C 63.757812 -38.546875 65.234375 -38.4375 66.703125 -38.21875 C 67.328125 -38.144531 67.925781 -37.957031 68.5 -37.65625 Z M 32.078125 -10.21875 C 32.210938 -10.195312 32.335938 -10.148438 32.453125 -10.078125 C 32.578125 -10.015625 32.664062 -9.941406 32.71875 -9.859375 C 32.78125 -9.773438 32.789062 -9.695312 32.75 -9.625 C 32.644531 -9.5 32.53125 -9.425781 32.40625 -9.40625 C 32.28125 -9.394531 32.160156 -9.390625 32.046875 -9.390625 C 32.015625 -9.390625 31.992188 -9.390625 31.984375 -9.390625 C 29.878906 -9.390625 27.765625 -9.289062 25.640625 -9.09375 C 24.523438 -9 23.394531 -8.921875 22.25 -8.859375 C 21.875 -8.835938 21.617188 -8.640625 21.484375 -8.265625 C 21.367188 -7.972656 21.238281 -7.675781 21.09375 -7.375 C 21.03125 -7.207031 20.96875 -7.035156 20.90625 -6.859375 C 20.625 -6.222656 20.359375 -5.601562 20.109375 -5 C 17.941406 0.257812 15.691406 5.484375 13.359375 10.671875 C 12.691406 12.109375 11.984375 13.523438 11.234375 14.921875 C 11.234375 14.941406 11.222656 14.960938 11.203125 14.984375 C 10.972656 15.429688 10.675781 15.863281 10.3125 16.28125 C 10 16.65625 9.585938 16.785156 9.078125 16.671875 C 8.941406 16.617188 8.820312 16.539062 8.71875 16.4375 C 8.625 16.34375 8.578125 16.222656 8.578125 16.078125 C 8.597656 15.734375 8.660156 15.398438 8.765625 15.078125 C 8.835938 14.835938 8.910156 14.585938 8.984375 14.328125 C 9.378906 13.054688 9.796875 11.78125 10.234375 10.5 C 12.203125 4.863281 14.488281 -0.632812 17.09375 -6 C 17.332031 -6.507812 17.617188 -7.007812 17.953125 -7.5 C 18.035156 -7.613281 18.148438 -7.679688 18.296875 -7.703125 C 18.441406 -7.734375 18.582031 -7.722656 18.71875 -7.671875 C 18.957031 -7.597656 19.046875 -7.414062 18.984375 -7.125 C 18.921875 -6.832031 18.796875 -6.492188 18.609375 -6.109375 C 18.429688 -5.722656 18.253906 -5.382812 18.078125 -5.09375 C 17.929688 -4.851562 17.832031 -4.675781 17.78125 -4.5625 C 15.082031 1.238281 13.578125 4.625 13.265625 5.59375 C 13.148438 5.914062 13.09375 6.132812 13.09375 6.25 C 13.09375 6.375 13.128906 6.425781 13.203125 6.40625 C 13.285156 6.382812 13.375 6.328125 13.46875 6.234375 C 13.570312 6.148438 13.664062 6.054688 13.75 5.953125 C 13.832031 5.859375 13.890625 5.796875 13.921875 5.765625 C 14.035156 5.460938 14.160156 5.15625 14.296875 4.84375 C 14.734375 3.832031 15.164062 2.828125 15.59375 1.828125 C 15.726562 1.535156 15.859375 1.242188 15.984375 0.953125 C 16.898438 -1.222656 17.8125 -3.40625 18.71875 -5.59375 C 18.757812 -5.664062 18.816406 -5.785156 18.890625 -5.953125 C 19.046875 -6.265625 19.210938 -6.628906 19.390625 -7.046875 C 19.578125 -7.460938 19.691406 -7.835938 19.734375 -8.171875 C 19.785156 -8.515625 19.703125 -8.691406 19.484375 -8.703125 C 19.035156 -8.703125 18.582031 -8.703125 18.125 -8.703125 C 17.832031 -8.703125 17.539062 -8.703125 17.25 -8.703125 C 16.988281 -8.703125 16.722656 -8.703125 16.453125 -8.703125 C 15.585938 -8.703125 14.722656 -8.71875 13.859375 -8.75 C 13.617188 -8.769531 13.398438 -8.828125 13.203125 -8.921875 C 13.191406 -8.941406 13.175781 -8.972656 13.15625 -9.015625 C 13.144531 -9.066406 13.128906 -9.125 13.109375 -9.1875 C 13.109375 -9.207031 13.109375 -9.226562 13.109375 -9.25 C 13.109375 -9.257812 13.117188 -9.273438 13.140625 -9.296875 C 13.171875 -9.328125 13.191406 -9.347656 13.203125 -9.359375 C 13.328125 -9.441406 13.445312 -9.488281 13.5625 -9.5 C 13.675781 -9.519531 13.796875 -9.53125 13.921875 -9.53125 C 13.953125 -9.53125 13.988281 -9.53125 14.03125 -9.53125 C 14.519531 -9.550781 15.007812 -9.570312 15.5 -9.59375 C 16.78125 -9.675781 18.054688 -9.722656 19.328125 -9.734375 C 19.765625 -9.734375 20.101562 -9.828125 20.34375 -10.015625 C 20.59375 -10.203125 20.785156 -10.492188 20.921875 -10.890625 C 21.554688 -12.523438 22.195312 -14.15625 22.84375 -15.78125 C 23.53125 -17.507812 24.207031 -19.242188 24.875 -20.984375 C 25.382812 -22.304688 25.867188 -23.640625 26.328125 -24.984375 C 26.578125 -25.691406 26.832031 -26.40625 27.09375 -27.125 C 27.09375 -27.15625 27.097656 -27.179688 27.109375 -27.203125 C 27.210938 -27.515625 27.34375 -27.796875 27.5 -28.046875 C 27.601562 -28.179688 27.722656 -28.253906 27.859375 -28.265625 C 27.992188 -28.273438 28.140625 -28.265625 28.296875 -28.234375 C 28.410156 -28.171875 28.503906 -28.09375 28.578125 -28 C 28.648438 -27.90625 28.675781 -27.800781 28.65625 -27.6875 C 28.59375 -27.238281 28.503906 -26.796875 28.390625 -26.359375 C 27.734375 -24.222656 26.992188 -22.125 26.171875 -20.0625 C 26.128906 -20 26.097656 -19.9375 26.078125 -19.875 C 25.335938 -17.925781 24.578125 -15.992188 23.796875 -14.078125 C 23.429688 -13.191406 23.070312 -12.304688 22.71875 -11.421875 C 22.71875 -11.410156 22.71875 -11.40625 22.71875 -11.40625 C 22.625 -11.144531 22.523438 -10.875 22.421875 -10.59375 C 22.328125 -10.34375 22.320312 -10.160156 22.40625 -10.046875 C 22.5 -9.941406 22.691406 -9.890625 22.984375 -9.890625 C 23.378906 -9.890625 23.773438 -9.910156 24.171875 -9.953125 C 24.347656 -9.953125 24.523438 -9.953125 24.703125 -9.953125 C 24.742188 -9.953125 24.769531 -9.960938 24.78125 -9.984375 C 27.039062 -10.054688 29.289062 -10.132812 31.53125 -10.21875 C 31.71875 -10.238281 31.898438 -10.238281 32.078125 -10.21875 Z M 32.078125 -10.21875 "/></g></g></g><g fill="#000000" fill-opacity="1"><g transform="translate(228.442489, 210.485187)"><g><path d="M 2.125 -3.171875 L 2.09375 -3.171875 C 0.789062 -3.191406 -0.0625 -3.476562 -0.46875 -4.03125 C -0.875 -4.59375 -0.859375 -5.335938 -0.421875 -6.265625 C -0.046875 -6.972656 0.425781 -7.59375 1 -8.125 C 1.195312 -8.300781 1.398438 -8.441406 1.609375 -8.546875 C 1.816406 -8.648438 2.046875 -8.703125 2.296875 -8.703125 C 2.453125 -8.734375 2.628906 -8.707031 2.828125 -8.625 C 2.890625 -8.601562 2.953125 -8.582031 3.015625 -8.5625 C 3.160156 -8.582031 3.304688 -8.628906 3.453125 -8.703125 C 3.492188 -8.734375 3.546875 -8.757812 3.609375 -8.78125 C 3.898438 -8.894531 4.210938 -8.941406 4.546875 -8.921875 C 4.679688 -8.921875 4.816406 -8.921875 4.953125 -8.921875 C 5.484375 -8.835938 5.878906 -8.613281 6.140625 -8.25 C 6.410156 -7.894531 6.507812 -7.457031 6.4375 -6.9375 C 6.382812 -6.625 6.285156 -6.332031 6.140625 -6.0625 C 5.109375 -4.21875 3.796875 -3.253906 2.203125 -3.171875 Z M 4.25 -7.96875 C 3.539062 -8 2.910156 -7.796875 2.359375 -7.359375 C 1.816406 -6.929688 1.410156 -6.4375 1.140625 -5.875 C 0.867188 -5.3125 0.789062 -4.847656 0.90625 -4.484375 C 1.03125 -4.117188 1.40625 -4.019531 2.03125 -4.1875 C 2.738281 -4.394531 3.363281 -4.789062 3.90625 -5.375 C 4.445312 -5.96875 4.773438 -6.53125 4.890625 -7.0625 C 5.015625 -7.59375 4.800781 -7.894531 4.25 -7.96875 Z M 4.25 -7.96875 "/></g></g></g><g fill="#000000" fill-opacity="1"><g transform="translate(239.670824, 210.485187)"><g><path d="M 6.484375 -6.390625 C 6.773438 -6.679688 7.019531 -6.84375 7.21875 -6.875 C 7.414062 -6.914062 7.539062 -6.882812 7.59375 -6.78125 C 7.65625 -6.6875 7.617188 -6.554688 7.484375 -6.390625 C 6.703125 -5.441406 5.820312 -4.625 4.84375 -3.9375 C 3.875 -3.25 2.875 -2.847656 1.84375 -2.734375 C 0.8125 -2.628906 0.1875 -3.195312 -0.03125 -4.4375 C -0.1875 -5.65625 0.550781 -8.144531 2.1875 -11.90625 C 3.832031 -15.664062 5.132812 -18.75 6.09375 -21.15625 C 6.175781 -21.363281 6.296875 -21.550781 6.453125 -21.71875 C 6.671875 -21.925781 6.925781 -21.972656 7.21875 -21.859375 C 7.320312 -21.816406 7.421875 -21.742188 7.515625 -21.640625 C 7.609375 -21.546875 7.640625 -21.375 7.609375 -21.125 C 3.378906 -11.101562 1.332031 -5.65625 1.46875 -4.78125 C 1.601562 -3.90625 2.164062 -3.6875 3.15625 -4.125 C 4.15625 -4.570312 4.925781 -5.023438 5.46875 -5.484375 C 6.007812 -5.941406 6.347656 -6.242188 6.484375 -6.390625 Z M 6.484375 -6.390625 "/></g></g></g><g fill="#000000" fill-opacity="1"><g transform="translate(250.47051, 210.485187)"><g><path d="M 7.625 -5.140625 C 7.113281 -4.628906 6.515625 -4.191406 5.828125 -3.828125 C 5.140625 -3.472656 4.5625 -3.238281 4.09375 -3.125 C 3.632812 -3.007812 3.160156 -2.945312 2.671875 -2.9375 C 1.878906 -2.894531 1.15625 -3 0.5 -3.25 C -0.582031 -3.6875 -0.957031 -4.523438 -0.625 -5.765625 C -0.3125 -6.828125 0.316406 -7.65625 1.265625 -8.25 C 2.222656 -8.851562 3.210938 -9.144531 4.234375 -9.125 C 4.234375 -9.125 4.242188 -9.125 4.265625 -9.125 C 4.523438 -9.144531 4.769531 -9.125 5 -9.0625 C 5.394531 -8.925781 5.644531 -8.695312 5.75 -8.375 C 5.851562 -8.050781 5.78125 -7.691406 5.53125 -7.296875 C 4.957031 -6.429688 4.179688 -5.953125 3.203125 -5.859375 C 2.546875 -5.796875 1.914062 -5.828125 1.3125 -5.953125 C 1.195312 -5.960938 1.09375 -5.925781 1 -5.84375 C 0.914062 -5.769531 0.863281 -5.675781 0.84375 -5.5625 C 0.664062 -4.789062 0.898438 -4.300781 1.546875 -4.09375 C 2.359375 -3.8125 3.195312 -3.8125 4.0625 -4.09375 C 5.0625 -4.40625 6.007812 -4.992188 6.90625 -5.859375 C 7.8125 -6.722656 8.332031 -7.125 8.46875 -7.0625 C 8.613281 -7.007812 8.65625 -6.84375 8.59375 -6.5625 C 8.46875 -6.125 8.144531 -5.648438 7.625 -5.140625 Z M 1.921875 -7.296875 C 1.867188 -7.234375 1.832031 -7.164062 1.8125 -7.09375 C 1.789062 -7.019531 1.820312 -6.953125 1.90625 -6.890625 C 2.21875 -6.710938 2.554688 -6.644531 2.921875 -6.6875 C 3.285156 -6.738281 3.59375 -6.878906 3.84375 -7.109375 C 4.101562 -7.335938 4.21875 -7.613281 4.1875 -7.9375 C 4.15625 -8.0625 4.085938 -8.140625 3.984375 -8.171875 C 3.890625 -8.203125 3.796875 -8.207031 3.703125 -8.1875 C 3.035156 -8.070312 2.441406 -7.773438 1.921875 -7.296875 Z M 1.921875 -7.296875 "/></g></g></g><g fill="#000000" fill-opacity="1"><g transform="translate(262.382, 210.485187)"><g><path d="M 10.515625 -6.984375 C 10.628906 -6.753906 10.4375 -6.40625 9.9375 -5.9375 C 9.4375 -5.46875 8.554688 -4.898438 7.296875 -4.234375 C 6.828125 -4.035156 6.484375 -3.878906 6.265625 -3.765625 C 6.054688 -3.648438 5.898438 -3.5 5.796875 -3.3125 C 5.703125 -3.132812 5.597656 -2.859375 5.484375 -2.484375 C 5.378906 -2.210938 5.25 -1.84375 5.09375 -1.375 C 4.875 -0.800781 4.660156 -0.210938 4.453125 0.390625 C 4.054688 1.628906 3.585938 2.851562 3.046875 4.0625 C 2.503906 5.269531 1.804688 6.328125 0.953125 7.234375 C 0.0976562 8.140625 -1.003906 8.738281 -2.359375 9.03125 C -3.710938 9.289062 -5.023438 9.328125 -6.296875 9.140625 C -7.566406 8.960938 -8.804688 8.613281 -10.015625 8.09375 C -10.515625 7.863281 -10.957031 7.566406 -11.34375 7.203125 C -12 6.535156 -12.050781 5.785156 -11.5 4.953125 C -11.195312 4.546875 -10.851562 4.175781 -10.46875 3.84375 C -9.675781 3.207031 -8.851562 2.628906 -8 2.109375 C -6.394531 1.140625 -4.757812 0.253906 -3.09375 -0.546875 C -1.425781 -1.347656 0.257812 -2.125 1.96875 -2.875 C 2.082031 -2.925781 2.210938 -2.984375 2.359375 -3.046875 C 2.816406 -3.265625 3.296875 -3.484375 3.796875 -3.703125 C 4.128906 -3.828125 4.351562 -4.050781 4.46875 -4.375 C 4.507812 -4.5 4.519531 -4.609375 4.5 -4.703125 C 4.476562 -4.765625 4.441406 -4.800781 4.390625 -4.8125 C 4.347656 -4.820312 4.296875 -4.804688 4.234375 -4.765625 C 4.066406 -4.671875 3.894531 -4.5625 3.71875 -4.4375 C 3.613281 -4.382812 3.503906 -4.316406 3.390625 -4.234375 C 2.773438 -3.878906 2.132812 -3.722656 1.46875 -3.765625 C 0.425781 -3.765625 -0.101562 -4.234375 -0.125 -5.171875 C -0.132812 -5.941406 0 -6.671875 0.28125 -7.359375 C 0.5625 -8.046875 0.957031 -8.691406 1.46875 -9.296875 C 1.519531 -9.359375 1.59375 -9.410156 1.6875 -9.453125 C 1.789062 -9.492188 1.894531 -9.519531 2 -9.53125 C 2.007812 -9.53125 2.03125 -9.539062 2.0625 -9.5625 C 2.257812 -9.582031 2.410156 -9.535156 2.515625 -9.421875 C 2.617188 -9.304688 2.640625 -9.15625 2.578125 -8.96875 C 2.460938 -8.71875 2.347656 -8.46875 2.234375 -8.21875 C 2.140625 -8.019531 2.039062 -7.820312 1.9375 -7.625 C 1.550781 -6.851562 1.375 -6.050781 1.40625 -5.21875 C 1.425781 -5.03125 1.503906 -4.894531 1.640625 -4.8125 C 1.773438 -4.738281 1.929688 -4.742188 2.109375 -4.828125 C 2.640625 -5.035156 3.101562 -5.335938 3.5 -5.734375 C 4.5625 -6.703125 5.4375 -7.8125 6.125 -9.0625 C 6.21875 -9.25 6.328125 -9.40625 6.453125 -9.53125 C 6.585938 -9.65625 6.765625 -9.722656 6.984375 -9.734375 C 7.253906 -9.765625 7.460938 -9.707031 7.609375 -9.5625 C 7.765625 -9.414062 7.8125 -9.21875 7.75 -8.96875 C 7.5 -8.164062 7.234375 -7.375 6.953125 -6.59375 C 6.929688 -6.53125 6.910156 -6.472656 6.890625 -6.421875 C 6.816406 -6.242188 6.75 -6.054688 6.6875 -5.859375 C 6.625 -5.660156 6.59375 -5.488281 6.59375 -5.34375 C 6.59375 -5.195312 6.65625 -5.125 6.78125 -5.125 C 7.269531 -5.21875 7.984375 -5.609375 8.921875 -6.296875 C 9.867188 -6.984375 10.398438 -7.210938 10.515625 -6.984375 Z M 3.5 -1.609375 C 3.5 -1.648438 3.507812 -1.691406 3.53125 -1.734375 C 3.59375 -1.828125 3.625 -1.929688 3.625 -2.046875 C 3.632812 -2.160156 3.601562 -2.28125 3.53125 -2.40625 C 3.46875 -2.40625 3.421875 -2.40625 3.390625 -2.40625 C 3.265625 -2.382812 3.148438 -2.351562 3.046875 -2.3125 C 2.859375 -2.238281 2.664062 -2.148438 2.46875 -2.046875 C 0.894531 -1.328125 -0.675781 -0.582031 -2.25 0.1875 C -3.820312 0.957031 -5.363281 1.773438 -6.875 2.640625 C -7.789062 3.171875 -8.65625 3.785156 -9.46875 4.484375 C -10.132812 5.078125 -10.453125 5.59375 -10.421875 6.03125 C -10.398438 6.476562 -10.007812 6.878906 -9.25 7.234375 C -7.550781 8.117188 -5.71875 8.476562 -3.75 8.3125 C -2.40625 8.1875 -1.316406 7.6875 -0.484375 6.8125 C 0.347656 5.9375 1.03125 4.882812 1.5625 3.65625 C 2.09375 2.4375 2.554688 1.222656 2.953125 0.015625 C 3.117188 -0.554688 3.300781 -1.097656 3.5 -1.609375 Z M 3.5 -1.609375 "/></g></g></g><g fill="#000000" fill-opacity="1"><g transform="translate(276.24876, 210.485187)"><g><path d="M 6.515625 -5.828125 L 5.421875 -5.859375 C 4.328125 -5.890625 3.128906 -5.976562 1.828125 -6.125 C 1.804688 -6.125 1.785156 -6.140625 1.765625 -6.171875 C 1.734375 -6.171875 1.703125 -6.1875 1.671875 -6.21875 C 1.648438 -6.25 1.648438 -6.316406 1.671875 -6.421875 C 1.773438 -6.828125 1.921875 -7.039062 2.109375 -7.0625 C 3.160156 -7.207031 4.195312 -7.285156 5.21875 -7.296875 L 5.84375 -7.328125 L 9.96875 -7.328125 C 10.195312 -7.328125 10.421875 -7.3125 10.640625 -7.28125 C 10.796875 -7.226562 10.816406 -7 10.703125 -6.59375 C 10.578125 -6.175781 10.429688 -5.945312 10.265625 -5.90625 C 10.179688 -5.882812 10.097656 -5.875 10.015625 -5.875 L 9.375 -5.875 C 8.46875 -5.84375 7.515625 -5.828125 6.515625 -5.828125 Z M 6.515625 -5.828125 "/></g></g></g><g mask="url(#14e4b3725e)"><g transform="matrix(1, 0, 0, 1, 80, 251)"><g clip-path="url(#77ab36bfb5)"><g clip-path="url(#80a46fa947)"><g fill="#ffffff" fill-opacity="1"><g transform="translate(0.343142, 11.292268)"><g><path d="M 6.722656 0.351562 C 9.972656 0.351562 12.148438 -1 12.148438 -3 C 12.148438 -4.675781 10.808594 -5.574219 7.707031 -6 L 5.265625 -6.339844 C 3.632812 -6.558594 2.941406 -6.972656 2.941406 -7.675781 C 2.941406 -8.632812 4.234375 -9.296875 6.042969 -9.296875 C 7.855469 -9.296875 9.515625 -8.558594 10.324219 -7.515625 L 11.28125 -8.707031 C 10.355469 -9.925781 8.339844 -10.78125 6.03125 -10.78125 C 3.042969 -10.78125 0.925781 -9.558594 0.925781 -7.546875 C 0.925781 -5.925781 2.089844 -5.101562 4.808594 -4.75 L 7.28125 -4.367188 C 9.28125 -4.089844 10.132812 -3.601562 10.132812 -2.824219 C 10.132812 -1.867188 8.808594 -1.160156 6.824219 -1.160156 C 4.398438 -1.160156 2.160156 -2.191406 1.398438 -3.675781 L 0.292969 -2.5 C 1.28125 -0.824219 3.824219 0.351562 6.722656 0.351562 Z M 6.722656 0.351562 "/></g></g></g></g><g clip-path="url(#2ccd98503e)"><g fill="#ffffff" fill-opacity="1"><g transform="translate(16.050437, 11.292268)"><g><path d="M 4.765625 0 L 6.808594 0 L 6.808594 -8.824219 L 11.488281 -8.824219 L 11.488281 -10.425781 L 0.0898438 -10.425781 L 0.0898438 -8.824219 L 4.765625 -8.824219 Z M 4.765625 0 "/></g></g></g></g><g clip-path="url(#86afcad31f)"><g fill="#ffffff" fill-opacity="1"><g transform="translate(30.890007, 11.292268)"><g><path d="M 0.734375 0 L 11.25 0 L 11.25 -1.484375 L 2.722656 -1.484375 L 2.722656 -4.675781 L 10.515625 -4.675781 L 10.515625 -6.042969 L 2.722656 -6.042969 L 2.722656 -8.925781 L 11.105469 -8.925781 L 11.105469 -10.425781 L 0.734375 -10.425781 Z M 0.734375 0 "/></g></g></g></g><g clip-path="url(#84378c5fcc)"><g fill="#ffffff" fill-opacity="1"><g transform="translate(45.700166, 11.292268)"><g><path d="M 0.734375 0 L 2.78125 0 L 2.78125 -3.601562 L 8.296875 -3.601562 C 10.957031 -3.601562 12.441406 -4.851562 12.457031 -6.984375 C 12.457031 -9.164062 10.972656 -10.425781 8.308594 -10.425781 L 0.734375 -10.425781 Z M 2.78125 -5.015625 L 2.78125 -9 L 7.796875 -9 C 9.472656 -9 10.414062 -8.265625 10.414062 -7 C 10.414062 -5.75 9.472656 -5.015625 7.796875 -5.015625 Z M 2.78125 -5.015625 "/></g></g></g></g><g clip-path="url(#2ac6527a78)"><g fill="#ffffff" fill-opacity="1"><g transform="translate(61.657481, 11.292268)"><g><path d="M 0.734375 0 L 2.78125 0 L 2.78125 -4.675781 L 10.558594 -4.675781 L 10.558594 0 L 12.589844 0 L 12.589844 -10.425781 L 10.558594 -10.425781 L 10.558594 -6.222656 L 2.78125 -6.222656 L 2.78125 -10.425781 L 0.734375 -10.425781 Z M 0.734375 0 "/></g></g></g></g><g clip-path="url(#3c1062e3b0)"><g fill="#ffffff" fill-opacity="1"><g transform="translate(78.247196, 11.292268)"><g><path d="M 0.734375 0 L 2.78125 0 L 2.78125 -4.367188 L 9.855469 -4.367188 L 9.855469 -5.792969 L 2.78125 -5.792969 L 2.78125 -8.824219 L 10.722656 -8.824219 L 10.722656 -10.425781 L 0.734375 -10.425781 Z M 0.734375 0 "/></g></g></g></g><g clip-path="url(#a286a67c18)"><g fill="#ffffff" fill-opacity="1"><g transform="translate(92.469071, 11.292268)"><g><path d="M 7.808594 0.367188 C 12.132812 0.367188 15.074219 -1.898438 15.074219 -5.207031 C 15.074219 -8.5 12.132812 -10.796875 7.808594 -10.796875 C 3.5 -10.796875 0.558594 -8.5 0.558594 -5.207031 C 0.558594 -1.898438 3.5 0.367188 7.808594 0.367188 Z M 7.808594 -1.222656 C 4.734375 -1.222656 2.601562 -2.851562 2.601562 -5.207031 C 2.601562 -7.558594 4.734375 -9.191406 7.808594 -9.191406 C 10.882812 -9.191406 13.03125 -7.558594 13.03125 -5.207031 C 13.03125 -2.851562 10.882812 -1.222656 7.808594 -1.222656 Z M 7.808594 -1.222656 "/></g></g></g></g><g clip-path="url(#9416ba9c5b)"><g fill="#ffffff" fill-opacity="1"><g transform="translate(111.367809, 11.292268)"><g><path d="M 0.734375 0 L 9.457031 0 L 9.457031 -1.617188 L 2.78125 -1.617188 L 2.78125 -10.425781 L 0.734375 -10.425781 Z M 0.734375 0 "/></g></g></g></g><g clip-path="url(#5e89cb5fdb)"><g fill="#ffffff" fill-opacity="1"><g transform="translate(124.207209, 11.292268)"><g><path d="M 0.734375 0 L 11.25 0 L 11.25 -1.484375 L 2.722656 -1.484375 L 2.722656 -4.675781 L 10.515625 -4.675781 L 10.515625 -6.042969 L 2.722656 -6.042969 L 2.722656 -8.925781 L 11.105469 -8.925781 L 11.105469 -10.425781 L 0.734375 -10.425781 Z M 0.734375 0 "/></g></g></g></g><g clip-path="url(#b41cb971e5)"><g fill="#ffffff" fill-opacity="1"><g transform="translate(139.017373, 11.292268)"><g><path d="M 5.175781 0 L 7.222656 0 L 7.222656 -3.78125 L 12.339844 -10.425781 L 10 -10.425781 L 6.207031 -5.339844 L 6.191406 -5.339844 L 2.339844 -10.425781 L -0.015625 -10.425781 L 5.175781 -3.78125 Z M 5.175781 0 "/></g></g></g></g><g fill="#ffffff" fill-opacity="1"><g transform="translate(154.621712, 11.292268)"><g><path d="M 1.601562 0.175781 C 2.28125 0.175781 2.78125 -0.28125 2.78125 -0.910156 C 2.78125 -1.53125 2.28125 -1.984375 1.601562 -1.984375 C 0.910156 -1.984375 0.425781 -1.53125 0.425781 -0.910156 C 0.425781 -0.28125 0.910156 0.175781 1.601562 0.175781 Z M 1.601562 0.175781 "/></g></g></g><g clip-path="url(#40549b829d)"><g fill="#ffffff" fill-opacity="1"><g transform="translate(161.092956, 11.292268)"><g><path d="M 7.75 0.339844 C 11.132812 0.339844 13.738281 -1.222656 14.441406 -3.675781 L 12.546875 -4.117188 C 12.015625 -2.367188 10.175781 -1.25 7.78125 -1.25 C 4.617188 -1.25 2.601562 -2.792969 2.601562 -5.207031 C 2.601562 -7.617188 4.441406 -9.164062 7.324219 -9.164062 C 9.414062 -9.164062 11.046875 -8.175781 11.546875 -6.617188 L 13.398438 -7.164062 C 12.632812 -9.355469 10.25 -10.75 7.28125 -10.75 C 3.164062 -10.75 0.558594 -8.589844 0.558594 -5.207031 C 0.558594 -1.792969 3.351562 0.339844 7.75 0.339844 Z M 7.75 0.339844 "/></g></g></g></g><g clip-path="url(#4046f027e8)"><g fill="#ffffff" fill-opacity="1"><g transform="translate(179.197508, 11.292268)"><g><path d="M 7.808594 0.367188 C 12.132812 0.367188 15.074219 -1.898438 15.074219 -5.207031 C 15.074219 -8.5 12.132812 -10.796875 7.808594 -10.796875 C 3.5 -10.796875 0.558594 -8.5 0.558594 -5.207031 C 0.558594 -1.898438 3.5 0.367188 7.808594 0.367188 Z M 7.808594 -1.222656 C 4.734375 -1.222656 2.601562 -2.851562 2.601562 -5.207031 C 2.601562 -7.558594 4.734375 -9.191406 7.808594 -9.191406 C 10.882812 -9.191406 13.03125 -7.558594 13.03125 -5.207031 C 13.03125 -2.851562 10.882812 -1.222656 7.808594 -1.222656 Z M 7.808594 -1.222656 "/></g></g></g></g><g clip-path="url(#798563f4f7)"><g fill="#ffffff" fill-opacity="1"><g transform="translate(198.096234, 11.292268)"><g><path d="M 0.734375 0 L 2.707031 0 L 2.707031 -8.296875 L 2.734375 -8.296875 L 7.265625 0 L 9.308594 0 L 13.808594 -8.296875 L 13.839844 -8.296875 L 13.839844 0 L 15.8125 0 L 15.8125 -10.425781 L 12.941406 -10.425781 L 8.28125 -1.839844 L 8.265625 -1.839844 L 3.574219 -10.425781 L 0.734375 -10.425781 Z M 0.734375 0 "/></g></g></g></g></g></g></g></svg>